<svg width="927" height="371" viewBox="0 0 927 371" fill="none" xmlns="http://www.w3.org/2000/svg">
<path d="M398.969 109.817V121.379H416.792V129.217H398.969V151.858C398.969 153.61 399.173 155.084 399.582 156.281C400.02 157.449 400.618 158.368 401.377 159.04C402.136 159.741 403.041 160.237 404.092 160.529C405.143 160.821 406.297 160.967 407.552 160.967C408.457 160.967 409.391 160.923 410.355 160.835C411.318 160.748 412.252 160.631 413.157 160.485C414.033 160.368 414.851 160.237 415.61 160.091C416.398 159.916 417.055 159.77 417.58 159.653L418.719 166.879C417.96 167.346 417.04 167.754 415.96 168.105C414.909 168.426 413.77 168.703 412.544 168.937C411.318 169.17 410.034 169.346 408.691 169.462C407.377 169.608 406.063 169.681 404.749 169.681C402.355 169.681 400.151 169.36 398.137 168.718C396.151 168.046 394.444 167.01 393.013 165.609C391.582 164.237 390.458 162.47 389.641 160.31C388.853 158.149 388.459 155.551 388.459 152.515V129.217H376.985V121.379H388.459V109.817H398.969ZM453.928 169.638C450.425 169.638 447.213 169.054 444.294 167.886C441.403 166.718 438.922 165.098 436.849 163.025C434.776 160.981 433.17 158.573 432.032 155.799C430.922 152.997 430.368 149.975 430.368 146.734V144.939C430.368 141.231 430.952 137.874 432.119 134.867C433.287 131.859 434.893 129.29 436.937 127.159C438.98 125.028 441.345 123.393 444.031 122.254C446.746 121.087 449.636 120.503 452.702 120.503C456.118 120.503 459.139 121.087 461.767 122.254C464.394 123.393 466.598 124.984 468.379 127.028C470.16 129.101 471.503 131.568 472.408 134.429C473.313 137.29 473.766 140.414 473.766 143.8V148.311H440.922V148.53C441.243 150.603 441.739 152.34 442.411 153.741C443.082 155.142 444.002 156.398 445.169 157.507C446.337 158.675 447.709 159.58 449.286 160.222C450.892 160.865 452.643 161.186 454.541 161.186C457.139 161.186 459.563 160.689 461.811 159.697C464.059 158.675 465.912 157.23 467.372 155.361L472.978 160.792C471.401 163.069 468.978 165.112 465.708 166.922C462.467 168.733 458.541 169.638 453.928 169.638ZM452.658 128.998C451.169 128.998 449.782 129.276 448.498 129.83C447.242 130.356 446.118 131.115 445.126 132.108C444.133 133.129 443.301 134.356 442.63 135.786C441.958 137.217 441.462 138.837 441.141 140.647H463.431V139.946C463.431 138.574 463.183 137.217 462.686 135.874C462.19 134.502 461.489 133.305 460.584 132.283C459.709 131.29 458.599 130.502 457.256 129.918C455.942 129.305 454.41 128.998 452.658 128.998ZM487.692 101.497H513.223V160.091H527.586V168.762H487.692V160.091H502.669V110.212H487.692V101.497ZM541.556 101.497H567.087V160.091H581.451V168.762H541.556V160.091H556.533V110.212H541.556V101.497ZM624.455 168.762L623.842 162.149C622.236 164.514 620.28 166.368 617.974 167.711C615.667 169.024 613.083 169.681 610.222 169.681C607.77 169.681 605.522 169.302 603.478 168.543C601.464 167.754 599.727 166.543 598.267 164.908C596.837 163.273 595.727 161.186 594.939 158.646C594.151 156.077 593.756 153.011 593.756 149.449V121.379H604.223V149.537C604.223 151.727 604.383 153.566 604.705 155.055C605.026 156.514 605.537 157.682 606.237 158.558C606.938 159.463 607.828 160.105 608.909 160.485C609.989 160.865 611.259 161.054 612.718 161.054C614.237 161.054 615.594 160.894 616.791 160.573C617.988 160.222 619.039 159.755 619.944 159.171C620.703 158.646 621.375 158.033 621.959 157.332C622.543 156.602 623.039 155.799 623.448 154.923V121.379H633.958V168.762H624.455ZM678.232 155.931C678.232 155.113 678.042 154.383 677.662 153.741C677.312 153.099 676.714 152.486 675.867 151.902C674.962 151.376 673.779 150.88 672.32 150.413C670.86 149.946 669.035 149.508 666.846 149.099C664.101 148.544 661.591 147.858 659.313 147.041C657.065 146.223 655.124 145.231 653.489 144.063C651.883 142.954 650.628 141.64 649.723 140.122C648.818 138.603 648.365 136.837 648.365 134.823C648.365 132.896 648.818 131.071 649.723 129.349C650.657 127.597 651.986 126.064 653.708 124.751C655.401 123.437 657.445 122.4 659.839 121.641C662.262 120.882 664.948 120.503 667.897 120.503C671.05 120.503 673.882 120.897 676.392 121.685C678.903 122.444 681.034 123.495 682.786 124.838C684.509 126.181 685.837 127.772 686.771 129.611C687.705 131.451 688.172 133.436 688.172 135.567H677.706C677.706 134.691 677.516 133.859 677.137 133.071C676.787 132.254 676.261 131.524 675.56 130.881C674.743 130.122 673.692 129.524 672.407 129.086C671.123 128.619 669.619 128.385 667.897 128.385C666.32 128.385 664.933 128.56 663.736 128.911C662.569 129.232 661.605 129.684 660.846 130.268C660.087 130.794 659.518 131.422 659.138 132.151C658.759 132.852 658.569 133.597 658.569 134.385C658.569 135.202 658.73 135.947 659.051 136.618C659.372 137.261 659.941 137.83 660.759 138.326C661.518 138.852 662.569 139.333 663.912 139.771C665.284 140.209 667.006 140.603 669.079 140.954C671.969 141.479 674.611 142.121 677.005 142.881C679.399 143.64 681.443 144.574 683.136 145.683C684.83 146.851 686.143 148.223 687.078 149.8C688.012 151.376 688.479 153.245 688.479 155.405C688.479 157.507 687.983 159.434 686.99 161.186C686.027 162.937 684.655 164.441 682.874 165.696C681.064 166.952 678.903 167.93 676.392 168.63C673.882 169.331 671.094 169.681 668.028 169.681C664.612 169.681 661.576 169.229 658.919 168.324C656.292 167.419 654.088 166.222 652.307 164.733C650.497 163.273 649.124 161.594 648.19 159.697C647.256 157.799 646.789 155.872 646.789 153.916H656.949C657.036 155.376 657.416 156.617 658.087 157.638C658.788 158.631 659.664 159.434 660.715 160.047C661.737 160.689 662.904 161.156 664.218 161.448C665.532 161.711 666.86 161.843 668.203 161.843C670.013 161.843 671.59 161.653 672.933 161.273C674.305 160.894 675.4 160.383 676.217 159.741C676.889 159.215 677.385 158.646 677.706 158.033C678.056 157.39 678.232 156.69 678.232 155.931Z" fill="white"/>
<path d="M374.122 229.522L374.888 225.252C377.333 211.494 381.95 201.586 388.738 195.529C395.562 189.471 403.554 186.442 412.714 186.442C421.618 186.442 428.114 188.668 432.201 193.12C436.289 197.536 437.548 204.086 435.978 212.772L435.322 216.604H421.034L421.91 211.622C422.75 206.878 422.257 203.283 420.432 200.838C418.644 198.393 415.524 197.171 411.072 197.171C406.182 197.171 402.039 199.141 398.646 203.083C395.288 207.024 392.88 213.173 391.42 221.53L389.34 233.245C387.88 241.602 388.172 247.769 390.216 251.747C392.296 255.725 395.763 257.713 400.616 257.713C404.959 257.713 408.444 256.491 411.072 254.046C413.736 251.564 415.542 247.66 416.491 242.331L417.148 238.335H431.49L430.614 243.043C429.227 250.926 425.742 257.111 420.159 261.6C414.575 266.052 407.276 268.278 398.262 268.278C388.555 268.278 381.512 265.195 377.133 259.027C372.79 252.86 371.786 243.025 374.122 229.522ZM435.759 242.879L436.088 241.127C437.438 233.464 440.96 227.296 446.653 222.625C452.346 217.917 459.225 215.563 467.29 215.563C475.355 215.563 481.395 217.917 485.409 222.625C489.423 227.296 490.755 233.464 489.405 241.127L489.077 242.879C487.726 250.579 484.205 256.783 478.512 261.491C472.855 266.162 465.976 268.497 457.875 268.497C449.809 268.497 443.77 266.162 439.756 261.491C435.741 256.783 434.409 250.579 435.759 242.879ZM450.813 240.744L450.375 243.262C449.609 247.605 449.992 251.145 451.525 253.882C453.094 256.619 455.831 257.987 459.736 257.987C463.677 257.987 466.907 256.619 469.425 253.882C471.979 251.145 473.622 247.587 474.351 243.207L474.789 240.744C475.592 236.401 475.191 232.898 473.585 230.234C472.016 227.533 469.261 226.183 465.319 226.183C461.414 226.183 458.203 227.533 455.685 230.234C453.203 232.898 451.579 236.401 450.813 240.744ZM494.003 242.879L494.332 241.127C495.682 233.464 499.203 227.296 504.896 222.625C510.589 217.917 517.468 215.563 525.534 215.563C533.599 215.563 539.638 217.917 543.653 222.625C547.667 227.296 548.999 233.464 547.649 241.127L547.32 242.879C545.97 250.579 542.448 256.783 536.755 261.491C531.099 266.162 524.22 268.497 516.118 268.497C508.053 268.497 502.013 266.162 497.999 261.491C493.985 256.783 492.653 250.579 494.003 242.879ZM509.057 240.744L508.619 243.262C507.852 247.605 508.236 251.145 509.768 253.882C511.338 256.619 514.075 257.987 517.979 257.987C521.921 257.987 525.15 256.619 527.668 253.882C530.223 251.145 531.865 247.587 532.595 243.207L533.033 240.744C533.836 236.401 533.434 232.898 531.829 230.234C530.259 227.533 527.504 226.183 523.563 226.183C519.658 226.183 516.447 227.533 513.929 230.234C511.447 232.898 509.823 236.401 509.057 240.744ZM546.554 290.996L559.582 216.987H573.65L572.501 223.501L572.61 223.446C574.362 221.256 576.789 219.432 579.891 217.972C583.029 216.476 586.441 215.728 590.127 215.728C596.513 215.728 601.185 217.954 604.141 222.406C607.133 226.822 607.936 232.989 606.549 240.908L606.275 242.66C604.852 250.506 601.805 256.746 597.134 261.381C592.499 266.016 587.007 268.333 580.657 268.333C576.935 268.333 573.924 267.713 571.625 266.472C569.326 265.231 567.501 263.589 566.151 261.545L560.95 290.996H546.554ZM568.012 250.761C568.523 252.696 569.563 254.411 571.132 255.907C572.738 257.367 574.855 258.097 577.482 258.097C581.387 258.097 584.507 256.692 586.843 253.882C589.178 251.035 590.729 247.441 591.496 243.098L591.933 240.635C592.736 236.219 592.426 232.715 591.003 230.124C589.616 227.497 587.007 226.183 583.175 226.183C580.475 226.183 578.066 226.913 575.949 228.373C573.869 229.796 572.263 231.475 571.132 233.409L568.012 250.761ZM611.202 242.824L611.476 241.072C612.826 233.336 616.256 227.168 621.767 222.57C627.277 217.936 633.956 215.618 641.802 215.618C649.538 215.618 655.086 217.826 658.443 222.242C661.837 226.621 662.84 232.697 661.454 240.47L660.961 244.576H618.756L619.632 236.748H647.823L647.878 236.365C648.425 233.518 648.115 231.073 646.947 229.03C645.78 226.949 643.426 225.909 639.886 225.909C636.164 225.909 633.116 227.241 630.744 229.905C628.372 232.533 626.785 235.817 625.982 239.759L625.544 242.934C624.741 247.678 625.124 251.4 626.694 254.101C628.263 256.765 630.963 258.097 634.795 258.097C637.569 258.097 639.977 257.549 642.021 256.454C644.101 255.36 645.816 253.882 647.166 252.02L658.333 255.907C656.107 259.702 652.932 262.75 648.809 265.049C644.721 267.348 639.485 268.497 633.098 268.497C624.705 268.497 618.592 266.198 614.76 261.6C610.965 257.002 609.779 250.743 611.202 242.824ZM664.136 267.238L673.004 216.987H687.51L686.306 223.993H686.36C688.222 221.658 690.429 219.742 692.984 218.246C695.575 216.75 698.403 216.001 701.469 216.001C702.418 216.001 703.348 216.074 704.261 216.22C705.209 216.33 705.848 216.458 706.176 216.604L704.206 227.606C703.585 227.387 702.819 227.223 701.907 227.114C700.994 226.968 699.991 226.895 698.896 226.895C696.414 226.895 693.86 227.698 691.232 229.303C688.605 230.872 686.379 232.953 684.554 235.544L678.971 267.238H664.136ZM700.538 252.896C701.414 247.933 704.078 243.955 708.53 240.963C712.982 237.97 718.511 236.474 725.117 236.474H737.707L738.418 232.642C738.856 229.942 738.528 227.917 737.433 226.566C736.338 225.18 734.295 224.486 731.302 224.486C728.346 224.486 725.974 225.088 724.186 226.293C722.398 227.46 721.321 229.176 720.956 231.438L720.683 232.642L707.326 232.588L707.6 231C708.403 226.512 711.14 222.844 715.811 219.997C720.518 217.151 726.503 215.728 733.766 215.728C741.101 215.728 746.374 217.096 749.585 219.833C752.833 222.534 753.892 226.968 752.76 233.135L748.874 255.141C748.509 257.33 748.308 259.41 748.272 261.381C748.272 263.315 748.527 264.994 749.038 266.417L748.874 267.238H734.696C734.295 266.326 734.039 265.231 733.93 263.954C733.82 262.64 733.802 261.29 733.875 259.903C732.306 261.947 729.897 263.808 726.649 265.487C723.401 267.129 719.515 267.95 714.99 267.95C709.662 267.95 705.702 266.673 703.111 264.118C700.52 261.564 699.662 257.823 700.538 252.896ZM714.99 251.911C714.588 254.393 714.99 256.254 716.194 257.495C717.435 258.735 719.405 259.356 722.106 259.356C725.025 259.356 727.854 258.334 730.591 256.29C733.364 254.247 734.97 251.947 735.408 249.393L736.448 244.302H728.237C724.222 244.302 721.121 244.922 718.931 246.163C716.778 247.404 715.464 249.32 714.99 251.911ZM759.439 227.771L761.3 216.987H795.239L793.378 227.771H759.439ZM763.325 252.075L769.128 219.395L769.62 218.738L773.014 199.306H786.918L778.16 248.955C777.503 252.714 777.576 255.122 778.379 256.181C779.182 257.239 780.66 257.768 782.813 257.768C783.725 257.768 784.601 257.713 785.44 257.604C786.316 257.458 787.174 257.221 788.013 256.892L786.207 267.074C785.258 267.403 783.871 267.694 782.046 267.95C780.222 268.205 778.014 268.333 775.423 268.333C770.642 268.333 767.175 267.111 765.022 264.665C762.869 262.184 762.303 257.987 763.325 252.075ZM793.213 267.238L802.081 216.987H816.752L807.939 267.238H793.213ZM804.271 198.813C804.636 196.623 805.676 194.799 807.391 193.339C809.106 191.843 811.314 191.095 814.015 191.095C816.715 191.095 818.649 191.824 819.817 193.284C820.985 194.744 821.386 196.587 821.022 198.813C820.62 201.003 819.544 202.864 817.792 204.396C816.077 205.893 813.869 206.641 811.168 206.641C808.504 206.641 806.588 205.874 805.421 204.342C804.253 202.809 803.87 200.966 804.271 198.813ZM822.062 216.987H836.075L841.549 247.258C841.695 248.316 841.859 249.356 842.042 250.378C842.224 251.364 842.352 252.13 842.425 252.677H842.644C842.899 252.13 843.283 251.345 843.793 250.324C844.341 249.302 844.87 248.28 845.381 247.258L861.912 216.987H875.324L847.023 267.238H832.845L822.062 216.987ZM871.875 242.824L872.149 241.072C873.499 233.336 876.93 227.168 882.44 222.57C887.951 217.936 894.629 215.618 902.475 215.618C910.212 215.618 915.759 217.826 919.116 222.242C922.51 226.621 923.514 232.697 922.127 240.47L921.634 244.576H879.429L880.305 236.748H908.496L908.551 236.365C909.099 233.518 908.788 231.073 907.621 229.03C906.453 226.949 904.099 225.909 900.559 225.909C896.837 225.909 893.79 227.241 891.418 229.905C889.045 232.533 887.458 235.817 886.655 239.759L886.217 242.934C885.414 247.678 885.798 251.4 887.367 254.101C888.936 256.765 891.636 258.097 895.468 258.097C898.242 258.097 900.65 257.549 902.694 256.454C904.774 255.36 906.489 253.882 907.84 252.02L919.007 255.907C916.781 259.702 913.606 262.75 909.482 265.049C905.395 267.348 900.158 268.497 893.771 268.497C885.378 268.497 879.265 266.198 875.433 261.6C871.638 257.002 870.452 250.743 871.875 242.824Z" fill="#38B7FF"/>
<path fill-rule="evenodd" clip-rule="evenodd" d="M172.725 222.417C171.426 213.694 171.592 211.897 176.329 183.236C178.057 172.775 179.089 163.169 178.619 161.883C177.859 159.799 176.306 159.618 164.245 160.206C150.235 160.887 144.036 162.822 141.037 167.446C140.107 168.887 138.607 170.052 137.705 170.037C134.364 169.981 142.313 158.218 149.311 150.512C156.798 142.271 155.575 141.134 194.918 142.21L221.827 142.949C226.219 143.07 229.647 146.802 229.378 151.187C229.321 152.112 229.271 153.017 229.232 153.915C229.039 158.295 225.294 161.662 220.922 161.347L213.539 160.815C204.824 160.187 197.004 160.208 196.003 160.857C194.612 161.764 194.035 168.484 193.494 190.174C193.023 209.051 193.017 215.719 193.936 219.267C194.453 221.264 195.751 223.004 197.567 223.983C207.917 229.568 217.559 201.746 216.388 213.153C215.21 222.233 214.793 232.174 204.435 239.03C194.486 245.617 176.444 243.487 172.725 222.417Z" fill="#38B7FF"/>
<path d="M298.467 140.194L258.332 70.6783C255.613 65.9679 250.545 63.0419 245.106 63.0419H121.628C116.189 63.0419 111.121 65.9679 108.402 70.6783C108.402 70.6783 79.6838 123.63 68.2499 142.271C65.6175 146.562 61.3699 145.485 59.0644 144.319C55.8906 142.714 55.853 138.882 57.9555 135.204C72.4087 109.92 97.0652 64.1327 97.0652 64.1327C102.115 55.3857 111.528 49.9512 121.628 49.9512H245.106C255.206 49.9512 264.619 55.3857 269.669 64.1327L309.803 133.648L298.467 140.194Z" fill="#38B7FF"/>
<path d="M256.318 142.121L232.56 100.971C229.84 96.2605 224.772 93.3349 219.333 93.3349H146.473C141.034 93.3349 135.966 96.2605 133.247 100.971L110.888 142.968C110.888 142.968 107.569 148.42 101.801 145.703C96.4468 143.181 99.5516 136.423 99.5516 136.423L121.91 94.4257C126.96 85.6779 136.372 80.2441 146.473 80.2441H219.333C229.434 80.2441 238.846 85.6779 243.896 94.4257L267.654 135.575L256.318 142.121Z" fill="#38B7FF"/>
<path d="M314.616 134.351C314.616 140.883 309.319 146.18 302.786 146.18C296.254 146.18 290.957 140.883 290.957 134.351C290.957 127.818 296.254 122.521 302.786 122.521C309.319 122.521 314.616 127.818 314.616 134.351Z" fill="#38B7FF"/>
<path d="M270.471 134.351C270.471 140.883 265.174 146.18 258.642 146.18C252.109 146.18 246.812 140.883 246.812 134.351C246.812 127.818 252.109 122.521 258.642 122.521C265.174 122.521 270.471 127.818 270.471 134.351Z" fill="#38B7FF"/>
<path d="M238.99 320.549H115.513C105.412 320.549 96.0002 315.115 90.9497 306.368L57.3789 248.22L68.7153 241.675L102.286 299.822C105.006 304.532 110.074 307.458 115.513 307.458H238.99C244.429 307.458 249.497 304.532 252.217 299.822L297.052 233.186C297.052 233.186 300.522 228.65 305.695 231.241C310.719 233.758 308.388 239.732 308.388 239.732L263.554 306.368C258.503 315.115 249.091 320.549 238.99 320.549Z" fill="#38B7FF"/>
<path d="M219.818 289.559H146.957C136.857 289.559 127.445 284.125 122.394 275.377L100.059 237.696L110.741 229.842L133.731 268.832C136.451 273.542 141.519 276.468 146.957 276.468H219.818C225.257 276.468 230.325 273.542 233.045 268.832L254.245 232.942C254.245 232.942 257.791 228.167 262.996 230.997C267.734 233.573 265.91 238.995 265.91 238.995L244.381 275.377C239.237 284.071 229.918 289.559 219.818 289.559Z" fill="#38B7FF"/>
<path d="M122.975 241.677C122.975 248.21 117.679 253.506 111.146 253.506C104.613 253.506 99.3164 248.21 99.3164 241.677C99.3164 235.144 104.613 229.848 111.146 229.848C117.679 229.848 122.975 235.144 122.975 241.677Z" fill="#38B7FF"/>
<path d="M74.9007 241.677C74.9007 248.21 69.6042 253.506 63.0713 253.506C56.5384 253.506 51.2422 248.21 51.2422 241.677C51.2422 235.144 56.5384 229.848 63.0713 229.848C69.6042 229.848 74.9007 235.144 74.9007 241.677Z" fill="#38B7FF"/>
<path d="M51.5925 219.181C50.4309 218.917 49.3448 218.321 48.5224 217.495C47.6808 216.65 48.4642 218.08 39.5431 201.11C36.0836 194.529 33.1368 188.849 32.9945 188.487C32.6544 187.622 32.6173 185.644 32.9229 184.659C33.1234 184.012 46.8753 160.607 47.7451 159.432C48.9923 157.747 51.4979 156.757 53.5758 157.129C55.9727 157.557 57.9448 159.364 58.5675 161.703C58.9168 163.016 58.7366 164.701 58.1146 165.934C57.982 166.198 55.5183 170.397 52.6404 175.267C49.762 180.136 47.2994 184.335 47.1679 184.599C46.6185 185.699 46.5221 187.266 46.9306 188.452C47.0256 188.728 49.6587 193.815 52.7819 199.757C55.9048 205.699 58.5571 210.804 58.6755 211.1C58.9529 211.794 59.0544 213.577 58.8677 214.476C58.2082 217.653 54.7411 219.896 51.5925 219.181Z" fill="#38B7FF"/>
<path d="M317.282 219.144C315.654 218.717 314.103 217.482 313.348 216.012C312.439 214.242 312.395 212.138 313.234 210.47C313.38 210.18 315.862 205.952 318.749 201.076C321.636 196.2 324.09 192.028 324.203 191.805C324.71 190.805 324.852 189.435 324.566 188.315C324.37 187.549 324.795 188.383 318.371 176.171C315.38 170.485 312.846 165.596 312.741 165.306C312.468 164.559 312.39 164.083 312.391 163.157C312.391 162.183 312.586 161.348 313.008 160.507C313.374 159.777 313.535 159.547 314.097 158.951C316.389 156.523 320.293 156.392 322.724 158.662C323.062 158.978 323.499 159.48 323.695 159.778C324.305 160.708 338.246 187.306 338.479 187.986C338.656 188.5 338.702 188.807 338.732 189.638C338.775 190.859 338.609 191.662 338.112 192.631C337.522 193.779 323.982 216.577 323.602 217.061C322.852 218.018 321.586 218.817 320.301 219.146C319.46 219.361 318.107 219.36 317.282 219.144Z" fill="#38B7FF"/>
</svg>
