<svg width="1457" height="362" viewBox="0 0 1457 362" fill="none" xmlns="http://www.w3.org/2000/svg">
<path fill-rule="evenodd" clip-rule="evenodd" d="M369.58 47.2977L317.766 73.5036L67.5621 200.015C66.7161 193.609 66.2904 187.155 66.2877 180.695C66.3219 154.917 73.1395 129.595 86.0652 107.238C98.9908 84.8807 117.576 66.2635 139.98 53.2305C162.384 40.1975 187.829 33.2009 213.795 32.9338C239.761 32.6666 265.346 39.1383 288.017 51.7076L317.675 36.707L322.099 34.4659C294.931 14.8908 262.84 3.15371 229.372 0.551788C195.905 -2.05014 162.364 4.58444 132.457 19.7223C102.551 34.8601 77.4425 57.9116 59.9078 86.3292C42.3732 114.747 33.0949 147.424 33.0983 180.749C33.0983 185.351 33.2743 189.936 33.6263 194.502C34.1193 200.969 32.6745 207.436 29.4739 213.09C26.2732 218.743 21.4597 223.331 15.6389 226.275L0 234.191V271.114L46.0427 247.818L60.9534 240.263L75.6455 232.835L339.413 99.4203L369.052 84.4378L430.315 53.4426V16.5375L369.58 47.2977ZM430.315 90.372L90.629 262.066L60.9898 277.084L0 307.935V344.822L60.571 314.188L112.385 287.982L362.844 161.291C363.69 167.739 364.116 174.234 364.118 180.737C364.102 206.545 357.286 231.899 344.348 254.284C331.41 276.668 312.799 295.304 290.363 308.341C267.927 321.378 242.446 328.363 216.449 328.603C190.453 328.842 164.846 322.328 142.17 309.706L140.349 310.664L108.198 326.93C135.36 346.505 167.444 358.246 200.906 360.854C234.369 363.462 267.906 356.837 297.813 341.709C327.719 326.582 352.831 303.541 370.374 275.134C387.916 246.726 397.206 214.057 397.216 180.737C397.216 176.092 397.034 171.448 396.688 166.857C396.196 160.393 397.639 153.928 400.836 148.275C404.033 142.622 408.842 138.033 414.658 135.085L430.315 127.169V90.372ZM849.705 213.907C849.705 153.959 890.013 116.005 941.973 116.005C1000.29 116.005 1034.59 164.079 1030.69 224.082H884.351C885.407 264.782 915.101 284.428 943.029 284.428C971.321 284.428 986.869 271.795 994.989 253.197H1028.21C1019.73 285.494 989.345 312.513 943.029 312.513C882.931 312.513 849.705 269.698 849.705 213.907ZM941.973 143.368C913.681 143.368 887.537 158.748 884.697 196.701H996.754C995.699 170.044 976.255 143.368 941.973 143.368ZM654.088 161.968L624.485 155.299C600.363 150.022 582.612 138.817 582.612 116.352C582.612 87.9232 617.203 79.1578 637.047 79.1578C662.536 79.1578 692.193 89.3329 700.677 118.449H735.687C725.419 69.6514 684.711 48.9758 638.468 48.9758C597.104 48.9758 545.854 69.6875 545.854 118.449C545.854 160.559 580.846 180.222 616.202 187.939L648.153 194.608C680.323 201.982 703.299 212.501 703.299 239.52C703.299 264.822 681.743 282.335 643.565 282.335C603.621 282.335 579.59 264.081 572.872 229.001H537.443C544.161 279.606 582.339 312.517 642.782 312.517C693.759 312.517 740.348 285.841 740.348 236.357C740.348 185.138 693.34 170.39 654.088 161.968ZM777.231 71.7979H809.4V119.167H845.448V144.795H809.4V256.739C809.4 276.384 810.802 281.3 829.19 281.3H845.448V307.958H822.126C785.715 307.958 777.231 299.897 777.231 260.589V144.795H747.173V119.167H777.231V71.7979ZM1446.86 118.139C1421.76 119.187 1402.68 130.79 1393.14 152.17V119.187H1361.66V307.978H1393.83V209.028C1393.83 166.918 1408.69 151.194 1438.38 151.194C1444.42 151.196 1450.44 151.667 1456.4 152.604V118.482C1453.23 118.208 1450.05 118.094 1446.86 118.139ZM1330.96 193.234L1330.62 236.753C1330.25 268.634 1331.67 290.033 1335.55 307.979H1303.03C1301.66 299.389 1300.83 290.72 1300.56 282.026C1288.91 301.708 1269.46 312.552 1235.53 312.552C1199.82 312.552 1170.13 292.888 1170.13 258.152C1170.13 213.512 1221.03 200.264 1298.79 191.824V187.269C1298.79 152.533 1279.71 141.31 1255.66 141.31C1228.81 141.31 1213.61 155.353 1212.19 178.847H1178.96C1181.78 138.147 1218.56 115.339 1255.32 115.339C1308.7 115.339 1331.33 139.539 1330.96 193.234ZM1242.59 287.286C1272.65 287.286 1301.27 273.586 1301.27 229.036V217.09C1242.94 222.711 1205.83 231.476 1205.83 257.447C1205.83 275.357 1219.61 287.286 1242.59 287.286ZM1084.53 53.4111H1052.36V307.951H1084.53V53.4111ZM1116.53 53.4111H1148.7V307.951H1116.53V53.4111Z" fill="black"/>
</svg>
